<svg xmlns="http://www.w3.org/2000/svg" width="14" height="14" viewBox="0 0 14 14" fill="none">
<path d="M3.66097 8.66806C3.57342 8.66804 3.48672 8.68526 3.40582 8.71876C3.32493 8.75225 3.25143 8.80136 3.18952 8.86327C3.12761 8.92518 3.0785 8.99868 3.04501 9.07958C3.01151 9.16047 2.99428 9.24717 2.99431 9.33472V10.5229C2.13501 9.55112 1.66078 8.29861 1.66097 7.00139C1.66085 6.80533 1.67259 6.60945 1.69613 6.4148C1.70692 6.32776 1.70043 6.23945 1.67703 6.15492C1.65363 6.07039 1.61378 5.99132 1.55976 5.92222C1.50575 5.85312 1.43863 5.79536 1.36225 5.75225C1.28587 5.70914 1.20173 5.68152 1.11466 5.67099C1.02759 5.66045 0.939291 5.6672 0.854833 5.69085C0.770375 5.7145 0.691414 5.75458 0.622475 5.8088C0.553536 5.86302 0.495975 5.93032 0.45309 6.00682C0.410205 6.08333 0.382839 6.16755 0.37256 6.25465C0.342363 6.50242 0.327361 6.75179 0.327641 7.00139C0.328546 8.59216 0.900278 10.1298 1.93889 11.3347H0.994307C0.817496 11.3347 0.647927 11.405 0.522903 11.53C0.397878 11.655 0.327641 11.8246 0.327641 12.0014C0.327641 12.1782 0.397878 12.3478 0.522903 12.4728C0.647927 12.5978 0.817496 12.6681 0.994307 12.6681H3.66097C3.76524 12.6667 3.86768 12.6405 3.95977 12.5916C4.05186 12.5427 4.13093 12.4725 4.19039 12.3869C4.19817 12.3766 4.20809 12.369 4.21533 12.3582C4.21977 12.3516 4.21989 12.3437 4.22404 12.3369C4.25581 12.2833 4.27962 12.2253 4.29471 12.1647C4.30458 12.1307 4.31159 12.096 4.31566 12.0608C4.31757 12.0402 4.32766 12.0225 4.32766 12.0014V9.33474C4.32769 9.24719 4.31046 9.16048 4.27696 9.07959C4.24347 8.99869 4.19436 8.92518 4.13245 8.86327C4.07054 8.80136 3.99703 8.75225 3.91613 8.71875C3.83524 8.68526 3.74853 8.66803 3.66097 8.66806ZM4.66097 3.00139H3.47266C4.44453 2.14213 5.69706 1.66791 6.99431 1.66806C7.19027 1.66759 7.38607 1.67933 7.58057 1.70322C7.66752 1.71378 7.75569 1.70711 7.84007 1.68359C7.92444 1.66007 8.00335 1.62016 8.0723 1.56614C8.14125 1.51213 8.19888 1.44506 8.24191 1.36877C8.28494 1.29248 8.31252 1.20846 8.32308 1.12151C8.33364 1.03456 8.32697 0.946385 8.30345 0.862013C8.27993 0.777642 8.24002 0.698729 8.18601 0.62978C8.13199 0.560831 8.06492 0.503197 7.98863 0.460168C7.91234 0.417139 7.82832 0.389557 7.74137 0.378999C7.49348 0.349093 7.244 0.334308 6.99431 0.334725C5.40355 0.33559 3.86592 0.907279 2.66097 1.94585V1.00139C2.66097 0.824581 2.59074 0.655012 2.46571 0.529987C2.34069 0.404963 2.17112 0.334725 1.99431 0.334725C1.8175 0.334725 1.64793 0.404963 1.5229 0.529987C1.39788 0.655012 1.32764 0.824581 1.32764 1.00139V3.66806C1.33183 3.71212 1.34062 3.75563 1.35385 3.79787L1.35401 3.79868C1.3702 3.88071 1.40216 3.95883 1.44812 4.02868L1.45573 4.03995C1.49978 4.10401 1.555 4.15964 1.61873 4.20417C1.62602 4.20951 1.62964 4.21768 1.63721 4.22277C1.64673 4.22907 1.65751 4.23107 1.66724 4.23685C1.70505 4.25959 1.74511 4.27836 1.78679 4.29285C1.84311 4.31244 1.90183 4.32429 1.96135 4.32808C1.9729 4.32869 1.98263 4.33475 1.99431 4.33475H4.66097C4.83778 4.33475 5.00735 4.26451 5.13238 4.13948C5.2574 4.01446 5.32764 3.84489 5.32764 3.66808C5.32764 3.49127 5.2574 3.3217 5.13238 3.19667C5.00735 3.07165 4.83778 3.00141 4.66097 3.00141V3.00139ZM12.6346 10.2041C12.6184 10.1221 12.5865 10.0439 12.5404 9.97406L12.5329 9.96286C12.4888 9.89876 12.4336 9.8431 12.3698 9.79856C12.3625 9.79327 12.3589 9.78505 12.3514 9.78C12.3442 9.77524 12.3357 9.77509 12.3283 9.77061C12.2438 9.72359 12.1511 9.69296 12.0552 9.68032C12.0341 9.67832 12.0159 9.66802 11.9943 9.66802H9.32764C9.15083 9.66802 8.98126 9.73826 8.85624 9.86329C8.73121 9.98831 8.66097 10.1579 8.66097 10.3347C8.66097 10.5115 8.73121 10.6811 8.85624 10.8061C8.98126 10.9311 9.15083 11.0014 9.32764 11.0014H10.5159C9.54407 11.8606 8.29155 12.3348 6.99431 12.3347C6.79833 12.3349 6.60253 12.323 6.40804 12.2989C6.23244 12.2776 6.05556 12.3269 5.91631 12.436C5.77706 12.545 5.68685 12.705 5.66553 12.8806C5.6442 13.0562 5.69351 13.2331 5.8026 13.3723C5.91169 13.5116 6.07163 13.6018 6.24723 13.6231C6.49514 13.653 6.74461 13.668 6.99431 13.668C8.58507 13.6672 10.1227 13.0955 11.3276 12.0569V13.0014C11.3276 13.1782 11.3979 13.3478 11.5229 13.4728C11.6479 13.5978 11.8175 13.6681 11.9943 13.6681C12.1711 13.6681 12.3407 13.5978 12.4657 13.4728C12.5907 13.3478 12.661 13.1782 12.661 13.0014V10.3347C12.6568 10.2907 12.648 10.2472 12.6348 10.2049L12.6346 10.2041ZM12.9943 2.66806C13.1711 2.66806 13.3407 2.59782 13.4657 2.4728C13.5907 2.34777 13.661 2.1782 13.661 2.00139C13.661 1.82458 13.5907 1.65501 13.4657 1.52999C13.3407 1.40496 13.1711 1.33473 12.9943 1.33473H10.3276C10.2842 1.33891 10.2414 1.34755 10.1998 1.36053L10.1953 1.36142C10.1144 1.37762 10.0372 1.40919 9.96818 1.45444L9.95512 1.46327C9.89135 1.50725 9.83597 1.56229 9.79159 1.62579C9.78634 1.63299 9.77825 1.63653 9.77328 1.64397C9.76852 1.65113 9.76835 1.6596 9.76388 1.66688C9.7163 1.75194 9.68545 1.84532 9.67297 1.94199C9.67107 1.96258 9.66097 1.98032 9.66097 2.00139V4.66806C9.66097 4.84487 9.73121 5.01444 9.85624 5.13946C9.98126 5.26449 10.1508 5.33472 10.3276 5.33472C10.5045 5.33472 10.674 5.26449 10.799 5.13946C10.9241 5.01444 10.9943 4.84487 10.9943 4.66806V3.47947C11.8535 4.45145 12.3278 5.70404 12.3276 7.00136C12.3278 7.19742 12.316 7.39331 12.2925 7.58795C12.2714 7.76343 12.3207 7.94013 12.4297 8.07927C12.5387 8.21841 12.6984 8.30863 12.8739 8.33014C12.9009 8.33327 12.9281 8.33479 12.9552 8.33469C13.118 8.33448 13.2751 8.27471 13.3968 8.16665C13.5186 8.05858 13.5965 7.90971 13.6161 7.74811C13.6463 7.50035 13.6613 7.25098 13.661 7.00139C13.6601 5.4106 13.0883 3.87297 12.0496 2.66806H12.9943Z" fill="#4F5665"/>
</svg>