<svg width="14" height="14" viewBox="0 0 14 14" fill="none" xmlns="http://www.w3.org/2000/svg">
<path d="M13.5039 12.7378L11.2123 10.4974L11.1586 10.4157C11.0587 10.3163 10.9221 10.2603 10.7796 10.2603C10.6371 10.2603 10.5005 10.3163 10.4007 10.4157C8.45315 12.2024 5.45226 12.2995 3.38817 10.6426C1.32407 8.98578 0.837275 6.08907 2.25062 3.87361C3.66396 1.65814 6.53888 0.811394 8.96873 1.89492C11.3986 2.97845 12.6294 5.65602 11.8448 8.15189C11.7883 8.3322 11.8345 8.52828 11.966 8.66627C12.0975 8.80427 12.2942 8.8632 12.4822 8.82089C12.6702 8.77857 12.8208 8.64143 12.8773 8.46112C13.8151 5.49926 12.3987 2.31187 9.54424 0.960868C6.68982 -0.39013 3.25406 0.500712 1.45953 3.05711C-0.33499 5.6135 0.0502822 9.06826 2.36612 11.1865C4.68195 13.3047 8.23335 13.4508 10.7229 11.5301L12.7519 13.5138C12.9615 13.7178 13.3003 13.7178 13.5098 13.5138C13.7192 13.307 13.7192 12.9739 13.5098 12.767L13.5039 12.7378Z" fill="#4F5665"/>
</svg>
