<svg xmlns="http://www.w3.org/2000/svg" width="12" height="14" viewBox="0 0 12 14" fill="none">
<path d="M10.6664 0.999955C10.4793 0.790724 10.2502 0.623231 9.99406 0.508371C9.73792 0.393511 9.46047 0.333857 9.17976 0.333289H2.81976C2.53753 0.331576 2.25814 0.389614 1.99994 0.50359C1.74175 0.617565 1.5106 0.784896 1.32169 0.994583C1.13279 1.20427 0.990399 1.45156 0.903889 1.72021C0.817379 1.98886 0.788708 2.27277 0.819758 2.55329L1.85976 11.8866C1.91414 12.3781 2.14863 12.8319 2.51797 13.1607C2.88731 13.4894 3.36533 13.6696 3.85976 13.6666H8.13976C8.63419 13.6696 9.1122 13.4894 9.48155 13.1607C9.85089 12.8319 10.0854 12.3781 10.1398 11.8866L11.1798 2.55329C11.2085 2.27282 11.1776 1.98944 11.0892 1.72173C11.0007 1.45403 10.8566 1.20806 10.6664 0.999955ZM8.79976 11.74C8.78163 11.9038 8.70347 12.0551 8.58035 12.1646C8.45724 12.2742 8.2979 12.3343 8.13309 12.3333H3.85976C3.69495 12.3343 3.53561 12.2742 3.4125 12.1646C3.28938 12.0551 3.21122 11.9038 3.19309 11.74L2.51976 5.66662H9.47976L8.79976 11.74ZM9.62643 4.33329H2.37309L2.15976 2.40662C2.14926 2.31309 2.15868 2.2184 2.18741 2.12878C2.21614 2.03915 2.26351 1.95662 2.32642 1.88662C2.38875 1.81756 2.46485 1.76231 2.54981 1.72442C2.63478 1.68653 2.72673 1.66684 2.81976 1.66662H9.17976C9.27279 1.66684 9.36474 1.68653 9.44971 1.72442C9.53467 1.76231 9.61076 1.81756 9.67309 1.88662C9.736 1.95662 9.78338 2.03915 9.81211 2.12878C9.84083 2.2184 9.85026 2.31309 9.83976 2.40662L9.62643 4.33329ZM7.33309 11C7.5099 11 7.67947 10.9297 7.8045 10.8047C7.92952 10.6797 7.99976 10.5101 7.99976 10.3333V7.66662C7.99976 7.48981 7.92952 7.32024 7.8045 7.19522C7.67947 7.07019 7.5099 6.99996 7.33309 6.99996C7.15628 6.99996 6.98671 7.07019 6.86169 7.19522C6.73666 7.32024 6.66643 7.48981 6.66643 7.66662V10.3333C6.66643 10.5101 6.73666 10.6797 6.86169 10.8047C6.98671 10.9297 7.15628 11 7.33309 11ZM4.66643 11C4.84324 11 5.01281 10.9297 5.13783 10.8047C5.26285 10.6797 5.33309 10.5101 5.33309 10.3333V7.66662C5.33309 7.48981 5.26285 7.32024 5.13783 7.19522C5.01281 7.07019 4.84324 6.99996 4.66643 6.99996C4.48961 6.99996 4.32004 7.07019 4.19502 7.19522C4.07 7.32024 3.99976 7.48981 3.99976 7.66662V10.3333C3.99976 10.5101 4.07 10.6797 4.19502 10.8047C4.32004 10.9297 4.48961 11 4.66643 11Z" fill="#4F5665"/>
</svg>